<svg width="246" height="88" viewBox="0 0 246 88" fill="none" xmlns="http://www.w3.org/2000/svg">
<path d="M105.412 41.1942C107.814 41.4611 110.127 42.5288 112.085 44.6641C115.199 48.223 115.821 52.0488 115.021 56.5863C114.131 61.5687 111.996 66.1063 108.259 69.5762C104.967 72.6902 102.921 74.2027 96.2477 75.8042C93.9344 76.427 91.5322 76.605 89.1299 76.427C85.3041 76.2491 81.4783 75.0925 78.2754 73.0461C75.3393 71.2667 72.8481 68.8644 72.2253 65.3056C71.6914 62.1915 72.4032 59.1665 74.2716 56.9422C75.1613 55.9635 76.4959 55.4297 77.5636 55.3407C78.1864 55.2517 81.1225 55.4297 80.5886 56.0525C78.1864 58.8106 76.0511 61.9246 76.5849 65.7504C76.8518 68.3306 78.0974 70.5549 80.4107 71.8895C82.635 73.2241 85.3931 74.3807 87.9733 74.5586C91.6211 74.7366 95.5359 74.8255 101.497 71.6226C102.654 70.9108 105.145 68.8644 106.39 67.3519C108.615 64.5048 109.682 60.768 110.127 57.2091C110.928 50.9811 106.124 43.5964 99.6286 44.1303C96.4256 45.1979 91.888 46.7994 88.952 47.6891L91.888 47.4222C90.4645 51.426 89.1299 54.6289 87.8843 58.7216C87.3505 60.5901 85.749 65.8394 85.66 67.7968C85.66 69.6652 82.9019 67.7078 82.546 67.3519C80.2327 64.9497 81.3004 60.768 82.0122 58.1878C83.1688 54.1841 84.6813 50.2693 86.1938 46.2656C87.8843 41.728 89.3968 37.1015 90.9093 32.475C91.6211 30.2507 92.3329 28.0264 92.9557 25.8021C93.4895 23.7557 93.4006 19.752 93.4006 19.663C93.4006 19.1292 93.4006 18.5064 93.3116 17.9726C93.2226 16.46 92.6888 14.8586 92.066 13.435C91.7991 12.9901 90.6424 10.4989 91.977 11.3887C95.6249 13.9688 97.5822 19.3071 97.9381 24.2896C99.8955 21.4425 102.387 18.9513 105.501 17.7056C107.814 16.727 111.195 16.3711 113.597 17.4387C115.821 18.4174 117.067 21.2645 117.512 23.4888C118.313 28.9161 114.576 34.0765 110.661 37.3684C109.06 38.792 107.28 40.0376 105.412 41.1942ZM95.3579 37.3684C94.7351 39.3258 94.0234 41.2832 93.4006 43.2406C101.319 39.6817 109.949 36.1228 112.618 27.2256C113.775 23.4888 111.729 16.9939 106.835 19.5741C102.12 22.0653 99.9845 27.5815 97.3153 31.8522C97.2263 31.9411 97.1374 32.1191 96.9594 32.475C96.4256 34.0765 95.8918 35.7669 95.3579 37.3684ZM142.571 57.2091C142.927 56.5863 145.507 58.5437 145.151 59.0775C141.147 64.5938 137.143 69.8431 129.937 70.9108C128.869 71.0887 125.577 70.9108 125.488 70.9108C124.42 70.7328 123.353 70.5549 122.374 70.199C119.794 69.3093 117.659 67.7078 117.036 64.5938C115.79 58.5437 118.904 51.7818 122.908 47.4222C124.776 45.3759 126.912 43.1516 129.492 41.995C131.627 40.9273 133.674 41.1052 135.987 41.728C140.168 42.8847 138.745 47.0663 137.054 50.3583C136.521 51.337 136.076 52.2267 135.364 53.0275C134.029 54.54 132.517 55.3407 131.093 55.9635C128.602 57.2091 125.933 58.1878 123.175 58.4547C122.997 58.5437 119.705 58.5437 119.438 58.5437C119.349 58.8106 122.374 59.0775 122.374 59.3444C122.107 60.5011 121.929 61.6577 121.929 62.8144C121.929 64.5048 122.107 66.3732 122.997 67.7968C123.798 68.9534 125.755 68.9534 126.823 68.9534C134.385 68.5975 139.101 62.5474 142.571 57.2091ZM126.823 49.9134C125.31 51.9598 124.065 54.2731 123.086 56.6753C123.531 56.5863 123.887 56.4084 124.242 56.3194C125.844 55.6966 127.357 54.9848 128.691 53.9172C131.805 51.337 134.296 43.6854 132.517 44.1303C131.983 44.5751 131.449 44.931 131.004 45.3759C129.403 46.7994 127.979 48.3119 126.823 49.9134ZM164.511 57.2091C164.867 56.5863 167.447 58.5437 167.091 59.0775C163.088 64.5938 159.084 69.8431 151.877 70.9108C150.81 71.0887 147.518 70.9108 147.429 70.9108C146.361 70.7328 145.293 70.5549 144.315 70.199C141.734 69.3093 139.599 67.7078 138.976 64.5938C137.731 58.5437 140.845 51.7818 144.848 47.4222C146.717 45.3759 148.852 43.1516 151.432 41.995C153.568 40.9273 155.614 41.1052 157.927 41.728C162.109 42.8847 160.685 47.0663 158.995 50.3583C158.461 51.337 158.016 52.2267 157.305 53.0275C155.97 54.54 154.457 55.3407 153.034 55.9635C150.543 57.2091 147.874 58.1878 145.115 58.4547C144.937 58.5437 141.646 58.5437 141.379 58.5437C141.29 58.8106 144.315 59.0775 144.315 59.3444C144.048 60.5011 143.87 61.6577 143.87 62.8144C143.87 64.5048 144.048 66.3732 144.937 67.7968C145.738 68.9534 147.696 68.9534 148.763 68.9534C156.326 68.5975 161.041 62.5474 164.511 57.2091ZM148.763 49.9134C147.251 51.9598 146.005 54.2731 145.026 56.6753C145.471 56.5863 145.827 56.4084 146.183 56.3194C147.785 55.6966 149.297 54.9848 150.632 53.9172C153.746 51.337 156.237 43.6854 154.457 44.1303C153.924 44.5751 153.39 44.931 152.945 45.3759C151.343 46.7994 149.92 48.3119 148.763 49.9134ZM179.957 56.5863C180.402 56.0525 182.982 58.0099 182.537 58.5437C180.224 61.5687 177.466 64.4158 174.53 66.8181C172.038 68.8644 169.102 70.9108 166.077 71.0887C163.052 71.1777 161.718 70.288 161.006 69.6652C159.938 68.6865 159.493 67.174 159.582 65.3945C159.582 62.9033 160.561 60.5011 161.362 58.1878C162.785 54.0061 164.387 49.9134 165.899 45.7318C167.768 40.6604 169.458 35.5 171.238 30.3396C171.86 28.4712 172.572 26.5139 173.106 24.6454C173.907 21.7984 174.263 19.4851 174.174 16.549C174.085 15.8372 176.22 16.8159 177.021 17.7056C178.889 19.663 178.8 21.8873 178.533 24.4675C178.355 26.8697 177.555 29.272 176.932 31.4963C175.419 36.5677 173.64 41.5501 171.86 46.4435C169.369 53.6503 166.433 60.857 164.387 68.2416C164.298 68.5975 164.387 69.3093 165.099 69.1313C168.391 68.3306 171.949 65.0386 173.729 63.4372C175.953 61.3018 178.088 59.0775 179.957 56.5863ZM187.647 39.1479C186.49 38.5251 185.778 37.9912 185.156 37.0125C184.622 36.1228 184.978 34.3434 185.6 32.9198C185.867 32.2081 186.223 31.4073 186.401 30.6955C186.49 30.3396 186.579 29.361 186.935 29.183C187.914 28.6492 189.426 30.0727 190.049 30.7845C190.672 31.4963 190.85 32.475 190.761 33.3647C190.672 34.8772 189.337 37.1015 189.426 38.2581C189.515 39.5037 188.358 39.5037 187.647 39.1479ZM192.273 56.2304C192.54 55.6966 195.12 57.476 194.675 58.0988C192.54 61.3018 190.138 64.5048 187.291 67.174C185.6 68.8644 183.732 70.288 181.864 70.9108C178.927 71.8005 176.614 69.7542 176.258 69.4872C175.191 68.5085 174.924 67.2629 175.102 65.8394C175.636 62.9923 176.614 60.2342 177.682 57.565C178.839 54.362 180.173 51.159 181.419 47.9561C182.041 46.3546 182.575 44.6641 183.02 42.9736C183.287 41.995 183.198 40.7493 183.554 40.5714C184.444 40.1265 187.024 41.5501 187.202 42.9736C187.38 44.842 185.867 49.1127 184.8 51.8708C183.643 55.0738 182.575 58.2768 181.508 61.4798C180.974 62.9033 180.529 64.3269 180.173 65.7504C179.906 66.7291 179.283 68.8644 179.728 69.0424C180.173 69.1313 182.13 67.7078 182.575 67.3519C184.177 66.0173 185.689 64.5048 187.024 62.9923C188.892 60.857 190.672 58.5437 192.273 56.2304ZM228.977 30.0727C229.066 30.0727 230.756 31.6742 230.045 31.6742C223.639 31.6742 217.233 31.9411 210.827 32.0301C209.136 32.0301 207.446 32.0301 205.755 32.0301C205.31 32.0301 200.239 32.0301 199.794 32.0301C199.705 32.386 204.243 32.8309 204.065 33.1867C202.73 37.6353 201.129 41.995 199.616 46.3546C197.036 53.5613 194.189 60.679 192.143 68.0637C192.054 68.4196 191.787 69.3983 192.765 68.8644C195.612 67.8857 198.726 64.5938 200.061 63.0813C202.018 61.0349 203.798 58.8996 205.399 56.4974C205.755 56.0525 208.424 57.8319 208.069 58.4547C205.933 61.4798 203.442 64.5048 200.773 66.996C198.015 69.4872 194.456 72.0674 190.808 70.6439C188.05 69.4872 187.249 67.085 187.249 65.3056C187.338 62.8144 188.317 60.4121 189.118 58.0988C190.541 53.9172 192.054 49.8245 193.566 45.6428C195.257 41.1052 196.858 36.5677 198.371 31.9411C195.612 31.9411 193.032 31.8522 190.452 31.4963C189.829 31.4073 188.851 29.9838 188.495 29.361C188.317 29.094 188.584 29.094 188.584 29.094C190.897 29.272 193.566 29.183 195.968 29.183C197.125 29.183 198.193 29.183 199.349 29.183C199.883 27.6705 200.328 26.069 200.862 24.5565C201.663 21.7094 201.929 19.3961 201.84 16.46C201.84 15.7483 203.976 16.2821 204.777 17.6167C207.268 21.2645 206.467 25.0013 205.31 29.0051C206.2 29.0051 207.001 29.0051 207.802 28.9161C213.941 28.8271 220.08 28.3823 226.219 28.3823C227.197 28.3823 228.354 29.4499 228.977 30.0727ZM227.077 57.2091C227.432 56.5863 230.013 58.5437 229.657 59.0775C225.653 64.5938 221.649 69.8431 214.443 70.9108C213.375 71.0887 210.083 70.9108 209.994 70.9108C208.926 70.7328 207.859 70.5549 206.88 70.199C204.3 69.3093 202.164 67.7078 201.542 64.5938C200.296 58.5437 203.41 51.7818 207.414 47.4222C209.282 45.3759 211.417 43.1516 213.998 41.995C216.133 40.9273 218.179 41.1052 220.493 41.728C224.674 42.8847 223.251 47.0663 221.56 50.3583C221.026 51.337 220.582 52.2267 219.87 53.0275C218.535 54.54 217.023 55.3407 215.599 55.9635C213.108 57.2091 210.439 58.1878 207.681 58.4547C207.503 58.5437 204.211 58.5437 203.944 58.5437C203.855 58.8106 206.88 59.0775 206.88 59.3444C206.613 60.5011 206.435 61.6577 206.435 62.8144C206.435 64.5048 206.613 66.3732 207.503 67.7968C208.303 68.9534 210.261 68.9534 211.328 68.9534C218.891 68.5975 223.607 62.5474 227.077 57.2091ZM211.328 49.9134C209.816 51.9598 208.57 54.2731 207.592 56.6753C208.037 56.5863 208.392 56.4084 208.748 56.3194C210.35 55.6966 211.862 54.9848 213.197 53.9172C216.311 51.337 218.802 43.6854 217.023 44.1303C216.489 44.5751 215.955 44.931 215.51 45.3759C213.909 46.7994 212.485 48.3119 211.328 49.9134Z" fill="black"/>
<path fill-rule="evenodd" clip-rule="evenodd" d="M3.57863 45.8146C3.60634 43.8869 4.60272 41.711 6.23765 39.4971C7.99909 37.111 10.5147 34.6526 13.3461 32.402C15.6888 30.5382 18.1818 28.8716 20.7997 27.4195C23.2804 26.0526 25.7304 24.9923 27.9237 24.3809L29.249 24.0122L28.7617 25.2972L22.2846 42.3796C21.331 44.6176 20.2364 46.5417 18.5719 48.3435C16.9623 50.0826 15.1557 51.2995 13.3527 52.0055C12.6213 52.2948 11.8603 52.5029 11.0834 52.626C10.3578 52.7416 9.62027 52.7619 8.88945 52.6862C8.26194 52.6209 7.64738 52.464 7.06536 52.2206C6.50954 51.9868 5.99713 51.6609 5.5497 51.2567C4.90031 50.6664 4.38043 49.888 4.03706 48.9206C3.72622 48.0447 3.56116 47.0097 3.57863 45.817V45.8146ZM30.1743 30.7303L25.2948 43.6164C24.652 45.2129 23.8386 46.7354 22.8689 48.1573C21.9486 49.5045 20.8707 50.7369 19.6581 51.8284L19.3924 52.0657L19.4286 52.417C19.7421 55.4486 21.1684 58.2565 23.4317 60.2977C25.695 62.339 28.6346 63.4689 31.6824 63.4689C34.7303 63.4689 37.6699 62.339 39.9332 60.2977C42.1965 58.2565 43.6228 55.4486 43.9363 52.417L43.9731 52.0657L43.7074 51.8284C42.4965 50.7366 41.4202 49.5042 40.5014 48.1573C39.5314 46.7357 38.7182 45.2131 38.0761 43.6164L33.193 30.7303V47.8387H34.7532C35.2298 47.8387 35.6957 47.98 36.0919 48.2448C36.4882 48.5095 36.797 48.8859 36.9794 49.3262C37.1618 49.7665 37.2095 50.2509 37.1165 50.7184C37.0236 51.1858 36.7941 51.6152 36.4571 51.9521C36.1201 52.2891 35.6907 52.5186 35.2233 52.6116C34.7559 52.7046 34.2714 52.6569 33.8311 52.4745C33.3908 52.2921 33.0145 51.9833 32.7497 51.587C32.4849 51.1907 32.3436 50.7249 32.3436 50.2483V48.688H31.0183V50.2483C31.0183 50.7249 30.877 51.1907 30.6122 51.587C30.3474 51.9833 29.9711 52.2921 29.5308 52.4745C29.0905 52.6569 28.606 52.7046 28.1386 52.6116C27.6711 52.5186 27.2418 52.2891 26.9048 51.9521C26.5678 51.6152 26.3383 51.1858 26.2453 50.7184C26.1524 50.2509 26.2001 49.7665 26.3825 49.3262C26.5648 48.8859 26.8737 48.5095 27.2699 48.2448C27.6662 47.98 28.1321 47.8387 28.6087 47.8387H30.1683V30.7303H30.1743ZM32.3466 28.4899V47.8387H31.0213V28.4905L31.0309 28.464L31.6827 26.7453L32.334 28.464L32.3442 28.4899H32.3466ZM33.1954 48.6875H34.7556C35.064 48.6876 35.3655 48.7791 35.6219 48.9505C35.8783 49.122 36.0781 49.3655 36.196 49.6505C36.314 49.9355 36.3449 50.249 36.2847 50.5515C36.2245 50.854 36.0759 51.1318 35.8578 51.3499C35.6398 51.568 35.3619 51.7165 35.0594 51.7767C34.757 51.8369 34.4434 51.8061 34.1585 51.6881C33.8735 51.5701 33.6299 51.3703 33.4585 51.1139C33.2871 50.8575 33.1955 50.5561 33.1954 50.2477V48.6875ZM27.5111 49.1447C27.3296 49.3261 27.1956 49.5495 27.1211 49.795C27.0466 50.0406 27.0338 50.3007 27.0838 50.5524C27.1338 50.8041 27.2452 51.0396 27.408 51.2379C27.5708 51.4363 27.78 51.5915 28.0171 51.6897C28.2542 51.7879 28.5118 51.8261 28.7672 51.8009C29.0226 51.7757 29.2678 51.6879 29.4811 51.5453C29.6945 51.4027 29.8694 51.2097 29.9903 50.9833C30.1112 50.757 30.1744 50.5043 30.1743 50.2477V48.6875H28.6147C28.4097 48.6872 28.2066 48.7274 28.0172 48.8059C27.8278 48.8844 27.6558 48.9995 27.5111 49.1447ZM15.3208 26.9122C13.9714 27.8225 12.6431 28.8074 11.322 29.8574C8.07981 32.4351 5.20753 35.3393 3.20814 38.2646C1.4455 40.8435 0.368394 43.4224 0.334659 45.7766C0.309358 47.4935 0.575623 49.0013 1.07683 50.2947C1.56422 51.5794 2.34669 52.7317 3.36115 53.6585C4.05631 54.2881 4.84996 54.7995 5.71054 55.1724C6.61334 55.5611 7.56973 55.8111 8.54728 55.9139C9.52999 56.0178 10.522 55.9958 11.4991 55.8483C12.5396 55.6921 13.559 55.4181 14.5376 55.0314C14.7304 54.9563 14.9111 54.8822 15.0798 54.8091C15.2537 54.7328 15.4344 54.6499 15.622 54.5603L16.387 54.191L16.5979 55.0157C17.4598 58.364 19.4106 61.3306 22.1431 63.4488C24.8757 65.567 28.235 66.7165 31.6924 66.7165C35.1498 66.7165 38.5091 65.567 41.2416 63.4488C43.9742 61.3306 45.9249 58.364 46.7869 55.0157L46.9977 54.1916L47.7628 54.5609C47.9478 54.6501 48.1285 54.7332 48.302 54.8091C48.4755 54.885 48.6496 54.9567 48.8441 55.032C49.8235 55.4188 50.8437 55.6929 51.8851 55.8489C52.8622 55.9964 53.8542 56.0185 54.8369 55.9145C55.8144 55.8117 56.7708 55.5617 57.6736 55.173C58.5342 54.8001 59.3279 54.2887 60.023 53.6591C61.0373 52.7321 61.8197 51.5799 62.3073 50.2953C62.8079 49.0019 63.0742 47.4941 63.0495 45.7772C63.0158 43.423 61.9387 40.8441 60.1754 38.2652C58.1766 35.3405 55.3044 32.4357 52.0622 29.858C50.7411 28.808 49.4116 27.8231 48.0628 26.9128C46.7428 26.0175 45.3771 25.1915 43.9713 24.4381L43.5496 24.2122L43.6098 23.7351C43.6423 23.4869 43.6674 23.2259 43.6851 22.952C43.7012 22.7038 43.7094 22.4403 43.7098 22.1616C43.712 20.5839 43.4024 19.0213 42.7987 17.5636C42.1951 16.106 41.3093 14.7819 40.1924 13.6677C40.0418 13.5179 39.9307 13.4099 39.8592 13.3436C39.7646 13.2556 39.6472 13.152 39.5086 13.0334L39.0966 12.6803L44.5821 3.1105C44.7959 2.73504 44.853 2.29041 44.741 1.87312C44.629 1.45582 44.357 1.09954 43.9839 0.881588L43.9791 0.878573C43.6044 0.667168 43.1617 0.611335 42.7463 0.723103C42.3309 0.834872 41.976 1.1053 41.758 1.47616V1.47917L36.5363 10.5231L36.2472 11.0237L35.705 10.8315C35.0652 10.6055 34.4071 10.4346 33.7382 10.3207C31.7154 9.97414 29.6377 10.15 27.702 10.8315L27.1599 11.0237L26.8701 10.5207L21.628 1.48158C21.4101 1.11062 21.0552 0.840061 20.6398 0.728177C20.2244 0.616294 19.7816 0.672043 19.4069 0.883397L19.4015 0.886412C19.0283 1.10424 18.7561 1.46056 18.6442 1.87794C18.5323 2.29532 18.5897 2.74001 18.8039 3.11532L24.2894 12.6864L23.8773 13.0394C23.7641 13.1358 23.6472 13.2406 23.5261 13.352C23.4551 13.4179 23.3446 13.5255 23.1948 13.6749C22.0764 14.7881 21.1898 16.112 20.586 17.5699C19.9823 19.0278 19.6734 20.5909 19.6774 22.1689C19.6774 22.448 19.6854 22.7114 19.7015 22.9592C19.7195 23.2323 19.7446 23.4934 19.7768 23.7424L19.837 24.2195L19.4153 24.4454C18.0087 25.1962 16.642 26.0196 15.3208 26.9122ZM34.6098 25.2972L34.1225 24.0122L35.4478 24.3809C37.6406 24.9923 40.0905 26.0526 42.5713 27.4195C45.1894 28.8715 47.6827 30.538 50.0255 32.402C52.8568 34.6526 55.3718 37.111 57.1339 39.4971C58.7682 41.711 59.7646 43.885 59.7929 45.8146C59.8098 47.0073 59.6453 48.0435 59.3345 48.9182C58.9911 49.8856 58.4712 50.6651 57.8218 51.2543C57.3742 51.6585 56.8615 51.9844 56.3055 52.2182C55.7237 52.4616 55.1094 52.6185 54.4821 52.6838C53.7512 52.7595 53.0137 52.7392 52.2881 52.6236C51.5112 52.5005 50.7502 52.2924 50.0188 52.0031C48.2158 51.2971 46.4092 50.0802 44.7996 48.3411C43.1339 46.5405 42.0399 44.6164 41.0869 42.3772L34.6116 25.2948L34.6098 25.2972ZM40.4755 22.7863L39.4869 22.4189C36.9709 21.4817 34.3513 20.8505 31.6846 20.5388C29.0178 20.8505 26.3982 21.4817 23.8822 22.4189L22.8936 22.7863L22.9442 21.7345C23.0514 19.4886 24.019 17.3702 25.6463 15.8186C27.2736 14.2671 29.4358 13.4015 31.6843 13.4015C33.9327 13.4015 36.0949 14.2671 37.7222 15.8186C39.3495 17.3702 40.3171 19.4886 40.4243 21.7345L40.4755 22.7863Z" fill="#24E200"/>
<path fill-rule="evenodd" clip-rule="evenodd" d="M47.83 66.4765C47.4535 66.8559 47.2421 67.3687 47.2421 67.9033C47.2421 68.4378 47.4535 68.9507 47.83 69.3301L55.2656 76.7656C55.6449 77.1422 56.1578 77.3535 56.6924 77.3535C57.2269 77.3535 57.7398 77.1422 58.1192 76.7656C58.3062 76.5782 58.4544 76.3557 58.5553 76.111C58.6562 75.8662 58.7078 75.6039 58.7071 75.3391C58.7076 75.0743 58.6559 74.8119 58.5548 74.5671C58.4537 74.3223 58.3052 74.0999 58.118 73.9126L50.6824 66.4765C50.495 66.2892 50.2725 66.1406 50.0276 66.0394C49.7828 65.9382 49.5203 65.8863 49.2553 65.8867C48.9906 65.8861 48.7283 65.9377 48.4835 66.0386C48.2387 66.1395 48.0163 66.2877 47.8288 66.4747L47.83 66.4765ZM15.541 66.4765C15.3535 66.2895 15.1309 66.1413 14.886 66.0404C14.6411 65.9395 14.3787 65.8879 14.1139 65.8885C13.849 65.8881 13.5866 65.94 13.3419 66.0412C13.0971 66.1424 12.8747 66.291 12.6874 66.4783L5.25187 73.912C5.06454 74.0993 4.91601 74.3217 4.81481 74.5665C4.7136 74.8113 4.66171 75.0736 4.66212 75.3385C4.66131 75.6033 4.71284 75.8656 4.81374 76.1104C4.91464 76.3552 5.06292 76.5777 5.25007 76.765C5.62945 77.1416 6.14232 77.3529 6.67687 77.3529C7.21142 77.3529 7.7243 77.1416 8.10367 76.765L15.5392 69.3295C15.9158 68.9501 16.1271 68.4372 16.1271 67.9027C16.1271 67.3681 15.9158 66.8553 15.5392 66.4759L15.541 66.4765ZM31.6855 73.1632C31.4207 73.1633 31.1585 73.2158 30.914 73.3175C30.6696 73.4192 30.4476 73.5682 30.2608 73.756C30.0732 73.9429 29.9243 74.165 29.8226 74.4096C29.721 74.6542 29.6687 74.9164 29.6687 75.1813V85.6981C29.6704 86.2326 29.8835 86.7448 30.2615 87.1227C30.6395 87.5007 31.1516 87.7138 31.6861 87.7156C32.2207 87.7138 32.7328 87.5007 33.1108 87.1227C33.4887 86.7448 33.7018 86.2326 33.7036 85.6981V75.1813C33.7018 74.6467 33.4887 74.1346 33.1108 73.7566C32.7328 73.3787 32.2207 73.1656 31.6861 73.1638L31.6855 73.1632Z" fill="#24E200"/>
<path d="M234.007 22.843V16.0025H235.164V22.843H234.007ZM231.713 16.8576V15.8013H237.457V16.8576H231.713ZM238.263 22.843V15.8013H239.068L241.995 20.6198H241.472L244.4 15.8013H245.204V22.843H244.048V17.8333L244.309 17.9038L242.136 21.4749H241.331L239.159 17.9038L239.42 17.8333V22.843H238.263Z" fill="black"/>
</svg>
